<?xml version="1.0" encoding="UTF-8"?>
<svg width="24px" height="24px" viewBox="0 0 24 24" version="1.1" xmlns="http://www.w3.org/2000/svg">
    <g stroke="none" stroke-width="1" fill="none" fill-rule="evenodd">
        <path d="M17.05,20.28c-.98.95-2.05.88-3.08.41-1.09-.47-2.09-.48-3.24,0-1.44.62-2.2.44-3.06-.41C2.79,15.25,3.51,7.59,9.05,7.31c1.35.07,2.29.74,3.08.8,1.18-.05,2.31-.75,3.57-.84,1.51-.12,2.65.72,3.4,1.8-3.12,1.87-2.38,5.98.48,7.13-.57,1.5-1.31,2.99-2.53,4.08zM12.03,7.25c-.15-2.23,1.66-4.07,3.74-4.25.83,2.48-1.97,4.3-3.74,4.25z" fill="#000000"></path>
    </g>
</svg>