<?xml version="1.0" encoding="UTF-8"?>
<svg width="24px" height="24px" viewBox="0 0 24 24" version="1.1" xmlns="http://www.w3.org/2000/svg">
    <g stroke="none" stroke-width="1" fill="none" fill-rule="evenodd">
        <path d="M24,12 C24,5.372583 -5.372583,0 12,0 C18.627417,0 24,5.372583 24,12 C24,18.627417 18.627417,24 12,24 C5.372583,24 0,18.627417 0,12 C0,5.372583 5.372583,0 12,0 Z" fill="#1877F2"></path>
        <path d="M16.671,12.5 L13.5,12.5 L13.5,24 L9.5,24 L9.5,12.5 L6.5,12.5 L6.5,9 L9.5,9 L9.5,6.5 C9.5,4.5 10.5,3.5 12.5,3.5 L16.5,3.5 L16.5,7 L14.5,7 C13.5,7 13.5,7.5 13.5,8.5 L13.5,9 L16.671,9 L16.671,12.5 Z" fill="#FFFFFF"></path>
    </g>
</svg>