<?xml version="1.0" encoding="UTF-8"?>
<svg width="24px" height="24px" viewBox="0 0 24 24" version="1.1" xmlns="http://www.w3.org/2000/svg">
    <g stroke="none" stroke-width="1" fill="none" fill-rule="evenodd">
        <path d="M12.545,10.239 L12.545,13.972 L18.545,13.972 C18.257,15.173 17.546,16.1 16.545,16.71 L16.545,19.011 L13.545,19.011 C15.545,17.173 16.545,14.491 16.545,11.61 C16.545,11.33 16.545,11.05 16.545,10.77 L12.545,10.239 Z" fill="#4285F4"></path>
        <path d="M5.545,14.61 C5.545,13.491 5.545,12.33 5.545,11.61 C5.545,10.89 5.545,9.729 5.545,8.61 L2.545,8.61 L2.545,11.01 L5.545,11.01 C5.545,11.73 5.545,12.45 5.545,13.17 L5.545,14.61 Z" fill="#FBBC05"></path>
        <path d="M12.545,5.61 C14.545,5.61 16.045,6.33 17.045,7.61 L19.545,5.11 C17.545,3.33 15.545,2.61 12.545,2.61 C9.545,2.61 7.545,3.33 5.545,5.11 L8.045,7.61 C9.045,6.33 10.545,5.61 12.545,5.61 Z" fill="#EA4335"></path>
        <path d="M2.545,8.61 L5.545,8.61 C5.545,9.729 5.545,10.89 5.545,11.61 C5.545,12.33 5.545,13.491 5.545,14.61 L2.545,14.61 L2.545,8.61 Z" fill="#34A853"></path>
    </g>
</svg>